<svg width="1200" height="700" viewBox="0 0 1200 700" fill="none" xmlns="http://www.w3.org/2000/svg">
  <rect width="1200" height="700" fill="#F0FDF4"/>
  <rect x="100" y="120" width="1000" height="460" rx="28" fill="white" stroke="#166534" stroke-width="6"/>
  <rect x="150" y="190" width="920" height="140" rx="16" fill="#DCFCE7"/>
  <rect x="150" y="360" width="200" height="170" rx="12" fill="#DCFCE7"/>
  <rect x="380" y="360" width="200" height="170" rx="12" fill="#DCFCE7"/>
  <rect x="610" y="360" width="200" height="170" rx="12" fill="#DCFCE7"/>
  <rect x="840" y="360" width="230" height="170" rx="12" fill="#DCFCE7"/>
  <path d="M560 110C560 88 578 70 600 70C622 70 640 88 640 110C640 148 600 170 600 170C600 170 560 148 560 110Z" fill="#166534"/>
  <text x="600" y="640" text-anchor="middle" fill="#0F172A" font-size="40" font-family="Arial, sans-serif" font-weight="700">Fortis Escorts Heart Institute</text>
</svg>
