<svg width="960" height="660" viewBox="0 0 960 660" fill="none" xmlns="http://www.w3.org/2000/svg" role="img" aria-labelledby="title desc">
  <title id="title">Medical travel illustration</title>
  <desc id="desc">Patient journey cards over a soft gradient map style background.</desc>
  <defs>
    <linearGradient id="bg" x1="110" y1="60" x2="860" y2="590" gradientUnits="userSpaceOnUse">
      <stop stop-color="#E6FAF7"/>
      <stop offset="1" stop-color="#FFF3DE"/>
    </linearGradient>
    <linearGradient id="card" x1="180" y1="190" x2="690" y2="480" gradientUnits="userSpaceOnUse">
      <stop stop-color="#ffffff" stop-opacity="0.96"/>
      <stop offset="1" stop-color="#FDFCF7" stop-opacity="0.94"/>
    </linearGradient>
  </defs>

  <rect x="24" y="24" width="912" height="612" rx="48" fill="url(#bg)"/>

  <path d="M95 170C235 95 355 120 452 198C560 286 652 292 837 220" stroke="#0F766E" stroke-opacity="0.26" stroke-width="12" stroke-linecap="round"/>
  <path d="M122 428C257 374 352 362 458 420C573 484 690 496 836 428" stroke="#D97706" stroke-opacity="0.22" stroke-width="10" stroke-linecap="round"/>

  <g filter="url(#f)">
    <rect x="144" y="148" width="672" height="360" rx="34" fill="url(#card)"/>
  </g>

  <circle cx="250" cy="228" r="18" fill="#0F766E"/>
  <circle cx="470" cy="328" r="14" fill="#D97706"/>
  <circle cx="696" cy="236" r="16" fill="#0F766E"/>
  <circle cx="610" cy="430" r="14" fill="#D97706"/>

  <rect x="206" y="260" width="252" height="18" rx="9" fill="#DCEFEA"/>
  <rect x="206" y="291" width="190" height="14" rx="7" fill="#E7E2D4"/>
  <rect x="206" y="333" width="298" height="16" rx="8" fill="#E2F0ED"/>
  <rect x="206" y="361" width="224" height="14" rx="7" fill="#F1E9D8"/>

  <rect x="540" y="285" width="226" height="150" rx="22" fill="#0F766E" fill-opacity="0.09"/>
  <rect x="566" y="314" width="175" height="14" rx="7" fill="#0F766E" fill-opacity="0.55"/>
  <rect x="566" y="342" width="122" height="11" rx="5.5" fill="#0F766E" fill-opacity="0.38"/>
  <rect x="566" y="374" width="148" height="11" rx="5.5" fill="#D97706" fill-opacity="0.42"/>

  <defs>
    <filter id="f" x="104" y="120" width="752" height="440" filterUnits="userSpaceOnUse" color-interpolation-filters="sRGB">
      <feFlood flood-opacity="0" result="BackgroundImageFix"/>
      <feColorMatrix in="SourceAlpha" type="matrix" values="0 0 0 0 0 0 0 0 0 0 0 0 0 0 0 0 0 0 127 0" result="hardAlpha"/>
      <feOffset dy="12"/>
      <feGaussianBlur stdDeviation="20"/>
      <feComposite in2="hardAlpha" operator="out"/>
      <feColorMatrix type="matrix" values="0 0 0 0 0.0588235 0 0 0 0 0.188235 0 0 0 0 0.25098 0 0 0 0.16 0"/>
      <feBlend mode="normal" in2="BackgroundImageFix" result="effect1_dropShadow_0_1"/>
      <feBlend mode="normal" in="SourceGraphic" in2="effect1_dropShadow_0_1" result="shape"/>
    </filter>
  </defs>
</svg>
