<svg width="1200" height="720" viewBox="0 0 1200 720" fill="none" xmlns="http://www.w3.org/2000/svg">
  <rect width="1200" height="720" fill="#0B1324"/>
  <rect width="1200" height="720" fill="url(#paint0_linear_max)"/>
  <circle cx="1015" cy="121" r="170" fill="#F59E0B" fill-opacity="0.2"/>
  <circle cx="187" cy="132" r="124" fill="#38BDF8" fill-opacity="0.14"/>
  <path d="M175 580H465V228C465 205.909 447.091 188 425 188H215C192.909 188 175 205.909 175 228V580Z" fill="#F8FAFC" fill-opacity="0.18"/>
  <path d="M492 580H773V150C773 127.909 755.091 110 733 110H532C509.909 110 492 127.909 492 150V580Z" fill="#F8FAFC" fill-opacity="0.24"/>
  <path d="M804 580H1046V267C1046 244.909 1028.09 227 1006 227H844C821.909 227 804 244.909 804 267V580Z" fill="#F8FAFC" fill-opacity="0.17"/>
  <rect x="597" y="182" width="70" height="210" rx="10" fill="#F8FAFC" fill-opacity="0.56"/>
  <rect x="622" y="115" width="18" height="92" rx="9" fill="#F59E0B" fill-opacity="0.8"/>
  <rect x="583" y="152" width="96" height="18" rx="9" fill="#F59E0B" fill-opacity="0.8"/>
  <g fill="#E2E8F0" fill-opacity="0.4">
    <rect x="231" y="264" width="42" height="42" rx="5"/>
    <rect x="299" y="264" width="42" height="42" rx="5"/>
    <rect x="367" y="264" width="42" height="42" rx="5"/>
    <rect x="231" y="329" width="42" height="42" rx="5"/>
    <rect x="299" y="329" width="42" height="42" rx="5"/>
    <rect x="367" y="329" width="42" height="42" rx="5"/>
    <rect x="231" y="394" width="42" height="42" rx="5"/>
    <rect x="299" y="394" width="42" height="42" rx="5"/>
    <rect x="367" y="394" width="42" height="42" rx="5"/>
    <rect x="542" y="241" width="32" height="32" rx="4"/>
    <rect x="689" y="241" width="32" height="32" rx="4"/>
    <rect x="542" y="300" width="32" height="32" rx="4"/>
    <rect x="689" y="300" width="32" height="32" rx="4"/>
    <rect x="542" y="359" width="32" height="32" rx="4"/>
    <rect x="689" y="359" width="32" height="32" rx="4"/>
    <rect x="850" y="306" width="38" height="38" rx="5"/>
    <rect x="913" y="306" width="38" height="38" rx="5"/>
    <rect x="976" y="306" width="38" height="38" rx="5"/>
    <rect x="850" y="370" width="38" height="38" rx="5"/>
    <rect x="913" y="370" width="38" height="38" rx="5"/>
    <rect x="976" y="370" width="38" height="38" rx="5"/>
  </g>
  <path d="M0 595C139 540 265 531 392 560C525 590 686 645 852 626C973 612 1084 561 1200 523V720H0V595Z" fill="#020617" fill-opacity="0.5"/>
  <defs>
    <linearGradient id="paint0_linear_max" x1="600" y1="0" x2="600" y2="720" gradientUnits="userSpaceOnUse">
      <stop stop-color="#10203A"/>
      <stop offset="1" stop-color="#1E293B"/>
    </linearGradient>
  </defs>
</svg>