<svg width="1200" height="420" viewBox="0 0 1200 420" fill="none" xmlns="http://www.w3.org/2000/svg" role="img" aria-labelledby="title desc">
  <title id="title">Destination network grid</title>
  <desc id="desc">Abstract grid with connected nodes representing treatment and destination clusters.</desc>
  <rect width="1200" height="420" rx="34" fill="#F8F2E5"/>
  <g opacity="0.55">
    <path d="M84 98H1118" stroke="#D7D3C7" stroke-width="2"/>
    <path d="M84 162H1118" stroke="#D7D3C7" stroke-width="2"/>
    <path d="M84 226H1118" stroke="#D7D3C7" stroke-width="2"/>
    <path d="M84 290H1118" stroke="#D7D3C7" stroke-width="2"/>
  </g>
  <g opacity="0.4">
    <path d="M180 52V366" stroke="#D7D3C7" stroke-width="2"/>
    <path d="M360 52V366" stroke="#D7D3C7" stroke-width="2"/>
    <path d="M540 52V366" stroke="#D7D3C7" stroke-width="2"/>
    <path d="M720 52V366" stroke="#D7D3C7" stroke-width="2"/>
    <path d="M900 52V366" stroke="#D7D3C7" stroke-width="2"/>
  </g>
  <path d="M158 138C236 106 286 98 368 124C457 152 525 212 610 218C709 224 756 180 848 172C942 164 1002 196 1062 248" stroke="#0F766E" stroke-width="8" stroke-linecap="round" stroke-opacity="0.35"/>
  <path d="M170 282C276 250 314 232 414 256C514 280 560 322 676 314C790 306 856 260 972 264C1024 266 1068 278 1110 302" stroke="#D97706" stroke-width="7" stroke-linecap="round" stroke-opacity="0.34"/>
  <circle cx="368" cy="124" r="11" fill="#0F766E"/>
  <circle cx="610" cy="218" r="10" fill="#0F766E"/>
  <circle cx="848" cy="172" r="11" fill="#0F766E"/>
  <circle cx="676" cy="314" r="10" fill="#D97706"/>
  <circle cx="972" cy="264" r="10" fill="#D97706"/>
</svg>
